<svg height="97" width="173" xmlns="http://www.w3.org/2000/svg"><path d="M115.146 61.455l-11.213 34.712h-2.067l11.213-34.712zm8.679-26.867L134.928.218h-2.067l-11.103 34.37zM10.3 57.893c3.508 0 6.221-1.367 8.195-3.035v-8.314h-8.332v3.638h4.25v2.735c-1.07.766-2.44 1.147-3.976 1.147-3.398 0-5.81-2.569-5.81-6.069v-.055c0-3.254 2.439-5.962 5.508-5.962 2.22 0 3.536.712 5.016 1.942l2.659-3.198c-2.001-1.696-4.083-2.626-7.538-2.626-5.81 0-10.056 4.457-10.056 9.9v.053c0 5.66 4.11 9.844 10.084 9.844zm11.39-.328h13.786v-3.828h-9.565V38.424h-4.22zm16.192 0h4.304l1.754-4.294h8.112l1.754 4.294h4.412l-8.223-19.276h-3.89zm7.565-8.012l2.549-6.207 2.547 6.207zm22.286 8.284c4.139 0 7.045-2.133 7.045-5.933v-.054c0-3.335-2.194-4.73-6.086-5.742-3.315-.848-4.137-1.259-4.137-2.517v-.054c0-.929.848-1.667 2.466-1.667 1.617 0 3.288.71 4.988 1.886l2.193-3.173c-1.946-1.557-4.331-2.433-7.126-2.433-3.92 0-6.715 2.299-6.715 5.77v.055c0 3.801 2.494 4.868 6.359 5.851 3.207.82 3.864 1.367 3.864 2.434v.055c0 1.121-1.04 1.805-2.769 1.805-2.191 0-4.001-.903-5.727-2.324l-2.494 2.98c2.301 2.05 5.235 3.061 8.139 3.061zm17.07 0c4.14 0 7.046-2.133 7.046-5.933v-.054c0-3.335-2.194-4.73-6.086-5.742-3.316-.848-4.138-1.259-4.138-2.517v-.054c0-.929.85-1.667 2.467-1.667 1.616 0 3.288.71 4.988 1.886l2.191-3.173c-1.945-1.557-4.33-2.433-7.124-2.433-3.92 0-6.715 2.299-6.715 5.77v.055c0 3.801 2.493 4.868 6.359 5.851 3.206.82 3.864 1.367 3.864 2.434v.055c0 1.121-1.042 1.805-2.769 1.805-2.192 0-4.001-.903-5.727-2.324l-2.495 2.98c2.302 2.05 5.235 3.061 8.139 3.061zm17.892-3.472l-5.482-15.941h-2.356l6.852 19.278h1.808l5.29-15.532 5.262 15.532h1.837l6.852-19.278h-2.275L115 54.364l-5.263-15.995h-1.781zm28.842-16.076h-2.028l-8.742 19.276h2.22l2.275-5.059h10.441l2.247 5.059h2.33zm3.317 12.275h-8.744l4.386-9.76zm8.813 7h12.964V55.57h-10.8V38.424h-2.164zm16.37 0h12.962V55.57h-10.798V38.424h-2.165z" fill="#fff" fill-rule="evenodd"/></svg>