<?xml version="1.0" encoding="utf-8"?>
<!-- Generator: Adobe Illustrator 24.0.1, SVG Export Plug-In . SVG Version: 6.00 Build 0)  -->
<svg version="1.1" id="Layer_1" xmlns="http://www.w3.org/2000/svg" xmlns:xlink="http://www.w3.org/1999/xlink" x="0px" y="0px"
	 viewBox="0 0 1200 800" style="enable-background:new 0 0 1200 800;" xml:space="preserve">
<style type="text/css">
	.st0{fill:none;}
	.st1{fill:url(#SVGID_1_);}
	.st2{fill:url(#SVGID_2_);}
	.st3{fill:url(#SVGID_3_);}
	.st4{fill:url(#SVGID_4_);}
	.st5{fill:url(#SVGID_5_);}
	.st6{fill:url(#SVGID_6_);}
	.st7{fill:url(#SVGID_7_);}
	.st8{fill:url(#SVGID_8_);}
	.st9{fill:url(#SVGID_9_);}
	.st10{fill:url(#SVGID_10_);}
	.st11{fill:url(#SVGID_11_);}
	.st12{fill:url(#SVGID_12_);}
	.st13{fill:url(#SVGID_13_);}
	.st14{fill:url(#SVGID_14_);}
	.st15{fill:url(#SVGID_15_);}
	.st16{fill:url(#SVGID_16_);}
	.st17{fill:url(#SVGID_17_);}
	.st18{fill:url(#SVGID_18_);}
	.st19{fill:url(#SVGID_19_);}
	.st20{fill:url(#SVGID_20_);}
</style>
<title>Asset 5</title>
<rect class="st0" width="1200" height="800"/>
<path class="st0" d="M1304.2,606.5L1304.2,606.5L1304.2,606.5L1304.2,606.5z"/>
<polygon class="st0" points="1306.3,606.7 1306.5,604.1 1304.4,604.4 1304.5,606.6 "/>
<path class="st0" d="M1402.1,653.7L1402.1,653.7L1402.1,653.7L1402.1,653.7z"/>
<g>
	<path class="st0" d="M421.2,189.3L421.2,189.3L421.2,189.3L421.2,189.3z"/>
	<g>
		
			<linearGradient id="SVGID_1_" gradientUnits="userSpaceOnUse" x1="-28.9716" y1="364.7341" x2="932.7537" y2="605.1653" gradientTransform="matrix(1 0 0 -1 0 802)">
			<stop  offset="0" style="stop-color:#5FBB53"/>
			<stop  offset="1" style="stop-color:#3D90CE"/>
		</linearGradient>
		<path class="st1" d="M255.5,300.9c-2.9,6.4-0.6,13.3,6.7,18.8c0.9,0.7,1.9,1.4,2.9,2l0,0l0,0L427.9,423c9.6,5.9,23.6,9.3,38.8,9.3
			h0.1l261.3-0.1h0.3c15.1,0,29.1-3.4,38.5-9.3l162.9-101.2c9.4-5.9,13-13.5,9.6-20.9l-58.1-126.3c-3.5-7.4-13.2-13.5-27-16.7
			l-235.2-56.1c-6.7-1.6-14.2-2.5-21.6-2.5c-0.9,0-1.7,0-2.6,0c-6.7,0.1-13,1-19.1,2.4l-235.6,56.2c-13.8,3.3-23.6,9.3-27,16.7
			 M922.2,318.7L759.3,420c-7.7,4.7-19.1,7.5-31.3,7.5H466.7h-0.1c-12.2,0-23.6-2.8-31.3-7.5L272.4,318.7c-0.7-0.5-1.6-1-2.2-1.5
			c-5.8-4.5-7.8-10.1-5.4-15.2l58-126.3c2.8-5.9,10.7-10.9,21.7-13.5L579.9,106c4.8-1.2,10-1.8,15.4-2h0.1h0.1h1.6l0,0h0.3
			c5.9,0,11.9,0.7,17.2,2L850,162.1c11,2.6,19,7.5,21.7,13.5l58.1,126.3C932.6,307.8,929.9,314,922.2,318.7z"/>
		
			<linearGradient id="SVGID_2_" gradientUnits="userSpaceOnUse" x1="-21.8269" y1="369.6295" x2="936.279" y2="609.1559" gradientTransform="matrix(1 0 0 -1 0 802)">
			<stop  offset="0" style="stop-color:#5FBB53"/>
			<stop  offset="1" style="stop-color:#3D90CE"/>
		</linearGradient>
		<path class="st2" d="M838.3,299c0.6-1,0.4-2.1-0.7-3c-1-0.9-2.8-1.6-4.8-1.9c-0.3-0.1-0.6-0.1-1-0.1h-0.1h-0.1
			c-0.6-0.1-1.2-0.1-1.7-0.2c-0.7-0.1-1.4-0.1-1.9-0.2c-4.2-0.3-8.4-0.4-12.6-0.5h-0.1H815c-9-0.3-17.8-1-26.4-2.2l-0.7-0.1
			l-0.6-0.1c-2.9-0.7-5.2-1.8-7.1-3.1l-3.5-0.5l-5.1-0.7l0.7-2.6c5.8-21.4-4.2-43.3-28.4-61.2l-2.9-2.2l3.9-1.8
			c0.6-0.3,1.4-0.7,2.3-1c0.3-0.1,0.6-0.2,0.9-0.4c0.4-1.7,1.9-3.3,4.2-4.6l0.3-0.1l0.3-0.1c6.8-2.9,14.2-5.5,22-7.7h0.1h0.1
			c3.8-0.9,7.4-2,10.9-3.2l2.9-1.2l0.1-0.1l0.1-0.1c3.8-1.4,4.8-4.1,2.2-6c-1.6-0.9-3.9-1.4-6.2-1.4c-2,0-4.1,0.4-5.7,1.1l0,0
			l-0.3,0.1l-0.3,0.1c-0.9,0.3-1.7,0.7-2.5,1c-3,1.4-6.1,3-8.8,4.6l0,0l0,0c-5.9,3.3-12.8,6.3-19.9,9l-0.6,0.2l-0.7,0.1
			c-2.6,0.6-5.5,0.9-8.3,0.9c-0.3,0-0.6,0-1,0l-3.5,1.2l-4.3,1.5l-3.6-2c-29.8-15.6-70-25.4-113.2-27.3l-5.7-0.3V180
			c0-0.4-0.1-1.1-0.1-1.7c-2.3-1.2-3.9-2.8-4.6-4.4l-0.1-0.2v-0.2c-0.3-4.5,0.3-9,1.7-13.3v-0.1V160c0.9-2,1.4-4.1,1.7-6.2V152
			c0-2.5-3-4.5-7-4.9H598c-4.8,0.1-8.4,2.2-8.3,4.6v0.1v0.1v0.2v1.7c0.3,2.1,1,4.1,1.7,6.2v0.1v0.1c1.4,4.4,1.9,8.9,1.6,13.3v0.4
			l-0.1,0.4c-0.9,1.6-2.3,3-4.5,4.2l-0.1,1.8l-0.3,2.7l-5.4,0.2c-43.3,1.8-83.6,11.5-113.6,27.3l-3.6,1.9l-4.3-1.5
			c-0.9-0.3-2-0.7-3-1.1c-0.6,0-1.2,0.1-1.9,0.1c-2.8,0-5.5-0.4-8-1l-0.4-0.1l-0.4-0.1c-7.1-2.7-13.8-5.7-19.9-9l-0.1-0.1v-0.1
			c-2.8-1.6-5.7-3.2-8.7-4.6c-0.3-0.1-0.9-0.4-1.3-0.5c-0.4-0.2-1-0.4-1.4-0.6c-1.7-0.7-3.9-1.1-6.1-1.1l0,0l0,0c-0.1,0-0.3,0-0.4,0
			c-2.2,0-4.2,0.4-5.5,1.3c-2.6,2-1.7,4.6,2.2,6l2.5,0.9v0.2c0.1,0,0.1,0.1,0.1,0.1c3.5,1.2,7.2,2.2,11,3.3h0.1h0.1
			c7.7,2.2,15.1,4.8,21.9,7.7l0.6,0.3l0.4,0.4c1.7,1.3,2.9,2.8,3.5,4.3l2.8,1.2l3.9,1.8l-2.9,2.2c-24.1,18-33.9,39.8-27.7,61.4
			l0.7,2.6l-5.1,0.7l-3.9,0.6c-1.9,1.2-4.3,2.6-7.5,3.3l-0.3,0.1l-0.3,0.1c-8.5,1.2-17.5,1.9-26.4,2.2h-0.1h-0.1
			c-4.2,0.1-8.5,0.2-12.6,0.5c-0.9,0.1-2.2,0.2-3,0.4h-0.1l-0.7,0.1H362c-1.9,0.2-3.6,0.8-4.8,1.6c-1.3,0.9-1.7,2-1.4,3
			c0.6,2,3.9,3.3,7.8,3.3c0.4,0,0.9,0,1.3-0.1c0.3,0,0.6-0.1,1-0.1l0.9-0.1h0.6c1-0.1,2-0.2,2.8-0.3h0.1c3.9-0.7,7.8-1.4,11.6-2.2
			h0.1h0.1c8.3-1.7,17-3,25.8-3.8l0.7-0.1h0.7c3.2,0.1,6.2,0.5,9.1,1.3l3.8-0.3l5.2-0.4l1.6,2.5c13.3,20.6,41.2,38,78.4,49l4.6,1.4
			l-2,2.5l-1.6,2c0.9,1.4,1.2,2.9,0.7,4.4l-0.1,0.4l-0.3,0.4c-3.6,4.2-8.1,8.2-13.3,12l-0.1,0.1l-0.1,0.1c-2.6,1.7-4.9,3.5-7.1,5.3
			c-0.3,0.2-0.6,0.6-0.9,0.9c-0.3,0.4-0.6,0.7-0.9,0.9l-0.1,0.1l-0.1,0.1c-2.3,1.9-1.2,4.3,2.6,5.5c1.3,0.4,2.8,0.6,4.2,0.6
			c2.8,0,5.4-0.7,6.8-1.9c0.3-0.2,0.6-0.5,0.7-0.7l0.1-0.2l0.3-0.2c0.3-0.3,0.9-0.8,1.2-1.2l0.3-0.2c1.4-2,2.8-3.9,3.6-5.9l0.1-0.2
			l0.1-0.2c1-1.4,2-2.8,3-4.1c2.3-3.5,4.6-6.8,8.8-9.3l0.3-0.1l0.3-0.1c1.7-0.8,3.9-1.4,6.1-1.8l1.9-1.7l2.6-2.4l5.1,0.9
			c20.3,3.9,41.4,5.9,63.2,5.9c13.2,0,26.2-0.7,39.1-2.2c7.8-0.9,15.6-2.1,23.2-3.6l5.1-0.9l2.6,2.3c0.3,0.3,0.7,0.6,1,0.9
			c0.3,0.2,0.4,0.4,0.7,0.6c3.2,0.6,5.9,1.6,8,3l0.3,0.2l0.3,0.2c4.2,3.9,7.5,8.1,10.1,12.4c0.6,0.9,1,1.7,1.4,2.5
			c0.7,1.2,1.3,2.4,2.3,3.6c0.1,0.1,0.3,0.4,0.6,0.5c0.4,0.4,0.9,0.9,1.3,1.4v0.1v0.1c1.2,1.5,4.2,2.6,7.4,2.6
			c0.9,0,1.9-0.1,2.8-0.2c2-0.4,3.6-1.1,4.5-2.1c0.9-0.9,1-2,0.3-3c-0.1-0.2-0.4-0.4-0.6-0.7l-0.1-0.1l-0.1-0.1
			c-0.1-0.2-0.4-0.4-0.6-0.7c-0.3-0.4-0.7-0.8-1-1.1c-2.2-1.8-4.5-3.6-7.1-5.3l-0.1-0.1l-0.1-0.1c-5.1-3.7-9.4-7.6-13-11.7l-0.1-0.2
			l-0.1-0.2c-0.9-1.7-0.7-3.3,0.3-4.9c-0.6-0.7-1-1.3-1.4-2l-1.4-2.3l4.2-1.2c37.4-11.1,65.4-28.6,78.5-49.4l1.6-2.5l5.2,0.4
			c1,0.1,2.3,0.2,3.5,0.3c2.6-0.8,5.8-1.2,8.8-1.2c0.3,0,0.6,0,0.7,0h0.4l0.4,0.1c8.7,0.8,17.4,2.1,25.6,3.8
			c1.7,0.3,3.3,0.7,4.8,0.9c2.5,0.5,4.6,1,7.4,1.4c0.3,0,0.7,0.1,1.3,0.1c0.4,0.1,0.9,0.1,1.3,0.1h0.6l0.9,0.1
			c0.7,0.1,1.4,0.1,2.3,0.1C834.1,301.8,837.3,300.6,838.3,299z M615.7,195.6c32.9,2,64.2,9.6,88,21.2l5.2,2.6l-6.1,2.1l-60.1,21.3
			c-3.2,1.2-7,1.8-11,1.8c-5.8,0-11-1.3-14.6-3.6c-2.5-1.5-3.9-3.4-4.1-5.4l-4.2-36.9l-0.4-3.7L615.7,195.6z M608.5,256.4h2.9
			l1.9,1.2l14.1,8.8l1.9,1.2l-0.7,1.4l-5.1,11l-0.7,1.4l-2.6,0.7l-20.3,4.9l-2.8,0.7l-2.8-0.7l-20.4-4.9l-2.6-0.7l-0.7-1.4
			l-4.9-10.9l-0.7-1.4l1.9-1.2l14.1-8.8l1.9-1.2h3h22.7V256.4z M490.5,216.8c20.1-9.9,45.4-16.7,72.9-19.9l0,0l0,0
			c3.6-0.4,7-0.7,10.1-0.9v-0.4h5.9l0.1,1.5l3-0.2l-0.1,1.9l3,0.1l-4.1,37l-0.1,1.5l-0.6,0.2c-1.9,4.1-9.3,7.2-18,7.2h-0.1h-0.1
			c-3.9,0-7.7-0.7-10.9-1.8l-60.6-21.4l-6.1-2.1L490.5,216.8z M480.7,232.2l51.4,23l2,0.9v0.3c5.7,3.3,5.8,8.3,0.1,11.8
			c-1.4,0.9-3.2,1.6-5.1,2.2v0.4l-4.5,0.7L454,281.9l-7,1l-0.9-3.6c-3.6-15.8,3-32,18.5-45.7l6.2-5.1 M524.4,333.7l-2.8,3.4l-6.2-2
			c-28-9-49.7-22.5-61-38.2l-2.5-3.5l7.2-0.7l72.7-6.2l7.2-0.6v0.8c7,0.7,12.5,3.4,14.2,7l0,0l0,0c0.6,1.3,0.6,2.6,0,3.8l0.4,0.3
			l-1.3,1.6L524.4,333.7z M646.3,343.2c-4.6,0.8-9.6,1.4-14.9,2.1c-11.2,1.3-22.6,2-34.1,2c-16.7,0-33-1.4-48.8-4.1l-7-1.2l3.6-3.2
			l35.8-32.3c1.9-1.7,4.8-3,8.1-3.9l-0.6-0.8l8-0.2c0.3,0,0.7,0,1,0c2.8,0,5.5,0.4,7.8,0.9c2.3,0.6,4.3,1.4,6.1,2.3h0.7l1.7,1.6
			l35.8,32.4l3.6,3.3L646.3,343.2z M740.8,296.9c-11.2,15.7-32.9,29.4-61,38.4l-6.2,2l-2.8-3.4l-28.5-34.4
			c-3.8-4.6,0.1-9.8,8.8-11.9l-0.4-0.8l4.6-0.2v-0.7l7.2,0.7l73.5,6.3l7.2,0.7L740.8,296.9z M722.9,228.3l6.4,5.1
			c15.5,13.7,22.5,29.8,19.4,45.5l-0.7,3.7l-7.1-1l-71.3-10.4l-4.5-0.7v-0.4c-6.8-2-10.4-6-8.7-10.1c0.6-1.4,1.9-2.8,3.8-3.8V256
			l2-0.9l51.2-22.8"/>
	</g>
	<g>
		<linearGradient id="SVGID_3_" gradientUnits="userSpaceOnUse" x1="-26.8866" y1="218.0178" x2="934.8507" y2="458.4521">
			<stop  offset="0" style="stop-color:#5FBB53"/>
			<stop  offset="1" style="stop-color:#3D90CE"/>
		</linearGradient>
		<path class="st3" d="M265,326.5l-7,15.3c-2.9,6.4-0.6,13.3,6.7,18.8c0.9,0.7,1.9,1.4,2.9,2L430.4,464c9.6,5.9,23.6,9.3,38.8,9.3
			h0.1l261.3-0.1h0.3c15.1,0,29.1-3.4,38.5-9.3l162.9-101.2c9.4-5.9,13-13.5,9.6-20.9l-8.1-17.7c-0.5,0.3-0.9,0.6-1.4,1l-6.4,4
			l6.4,13.9c2.8,5.9,0,12.1-7.7,16.8L761.8,460.9c-7.7,4.7-19.1,7.5-31.3,7.5H469.3h-0.1c-12.2,0-23.6-2.8-31.3-7.5L274.9,359.7
			c-0.7-0.5-1.6-1-2.2-1.5c-5.8-4.5-7.8-10.1-5.4-15.2l5.1-11.1"/>
	</g>
	<g>
		<linearGradient id="SVGID_4_" gradientUnits="userSpaceOnUse" x1="-26.8866" y1="258.9079" x2="934.8507" y2="499.3422">
			<stop  offset="0" style="stop-color:#5FBB53"/>
			<stop  offset="1" style="stop-color:#3D90CE"/>
		</linearGradient>
		<path class="st4" d="M265,367.4l-7,15.3c-2.9,6.4-0.6,13.3,6.7,18.8c0.9,0.7,1.9,1.4,2.9,2l162.9,101.3c9.6,5.9,23.6,9.3,38.8,9.3
			h0.1l261.3-0.1h0.3c15.1,0,29.1-3.4,38.5-9.3l162.9-101.2c9.4-5.9,13-13.5,9.6-20.9l-8.1-17.7c-0.5,0.3-0.9,0.6-1.4,1l-6.4,4
			l6.4,13.9c2.8,5.9,0,12.1-7.7,16.8L761.8,501.8c-7.7,4.7-19.1,7.5-31.3,7.5H469.3h-0.1c-12.2,0-23.6-2.8-31.3-7.5L274.9,400.6
			c-0.7-0.5-1.6-1-2.2-1.5c-5.8-4.5-7.8-10.1-5.4-15.2l5.1-11.1"/>
	</g>
	
		<linearGradient id="SVGID_5_" gradientUnits="userSpaceOnUse" x1="512.9176" y1="66.3459" x2="1045.1437" y2="460.9061" gradientTransform="matrix(1 0 0 -1 0 802)">
		<stop  offset="0" style="stop-color:#5FBB53"/>
		<stop  offset="1" style="stop-color:#3D90CE"/>
	</linearGradient>
	<path class="st5" d="M558.8,652c8-4.2,18.7-6.9,30.2-7.7c3.9-0.3,5.1-1,5-2.9c-0.2-4.5,0-9.1-0.1-13.7c0-1.6,0.3-2.7,4.3-2.8
		c4.2-0.1,4.3,1.1,4.3,2.7c-0.1,4.4,0.4,8.9,0,13.3c-0.2,2.5,1.9,3.1,6.1,3.4c28.9,2.4,49.1,15.6,46.4,30.2
		c-4.4,21.8-51.8,33.4-88.2,21.2c-26.9-9-32.2-24.4-17.4-38.1C551.7,655.7,555.7,654,558.8,652z M632.3,655.3
		c-18.8-9.4-49.3-9.4-68.1,0.1s-18.7,24.7,0.1,34.1c17.9,9.3,49.6,9.2,67.9,0C651,680,651,664.8,632.3,655.3z"/>
	
		<linearGradient id="SVGID_6_" gradientUnits="userSpaceOnUse" x1="498.4006" y1="120.9174" x2="884.0265" y2="406.797" gradientTransform="matrix(1 0 0 -1 0 802)">
		<stop  offset="0" style="stop-color:#5FBB53"/>
		<stop  offset="1" style="stop-color:#3D90CE"/>
	</linearGradient>
	<path class="st6" d="M602.1,598.5c0.1,4.8,0,9.3,0.5,13.8c0.3,3.1-1.7,4.2-8,3.2c0.2-5.4,0.4-10.9,0.6-16.5L602.1,598.5z"/>
	
		<linearGradient id="SVGID_7_" gradientUnits="userSpaceOnUse" x1="465.924" y1="118.5162" x2="917.4313" y2="453.2364" gradientTransform="matrix(1 0 0 -1 0 802)">
		<stop  offset="0" style="stop-color:#5FBB53"/>
		<stop  offset="1" style="stop-color:#3D90CE"/>
	</linearGradient>
	<path class="st7" d="M603.7,587.8l-10.2-0.6c0.4-2.1,1.1-4.1,1.9-6.2c0.1-0.2,5.1-0.3,5.2,0C601.9,583.2,603,585.5,603.7,587.8z"/>
	
		<linearGradient id="SVGID_8_" gradientUnits="userSpaceOnUse" x1="512.4429" y1="65.7494" x2="1051.1536" y2="465.1169" gradientTransform="matrix(1 0 0 -1 0 802)">
		<stop  offset="0" style="stop-color:#5FBB53"/>
		<stop  offset="1" style="stop-color:#3D90CE"/>
	</linearGradient>
	<path class="st8" d="M580.5,681.2c-10.4-4.4-10.4-12.9-0.2-17.9c9.9-5,26-5.1,36-0.1c0.1,0,0.1,0.1,0.2,0.1
		c9.7,4.8,10.1,13.7,0.2,18.2C607.1,685.8,591.1,687.1,580.5,681.2z M586.4,666.4c-6.4,3.2-6.4,8.9-0.1,12c6.3,3.1,17.9,3,24.1-0.1
		c6.5-3.3,6.4-8.6-0.2-11.9c0,0,0,0-0.1,0c-6.2-3.3-16.6-3.4-23.1-0.3C586.8,666.2,586.6,666.3,586.4,666.4z"/>
	
		<linearGradient id="SVGID_9_" gradientUnits="userSpaceOnUse" x1="592.0139" y1="-26.8331" x2="1129.3732" y2="371.5326" gradientTransform="matrix(1 0 0 -1 0 802)">
		<stop  offset="0" style="stop-color:#5FBB53"/>
		<stop  offset="1" style="stop-color:#3D90CE"/>
	</linearGradient>
	<path class="st9" d="M857.2,605.9c-0.2-5.8,3.5-11.5,10.5-16.1c2.3-1.6,2.1-2.5-0.6-3.8c-6.6-3.2-12.8-6.5-19.4-9.6
		c-2.3-1.1-3.6-2-0.9-3.5c2.8-1.5,4.7-0.7,6.9,0.4c6.2,3.2,12.8,6.2,18.7,9.4c3.3,1.8,5.7,1.5,9.2,0.3c23.9-8.4,56.8-6.3,75.4,5
		c27.9,16.9,10.7,41.9-32.3,46.1c-31.7,3.1-57.3-5.9-66.2-20.8C857.2,611,857.6,608.4,857.2,605.9z M913.8,582.3
		c-26.6,0-48.2,10.8-48.2,24.1s21.6,24.1,48.2,24.1c25.8,0.3,48-11,48.2-24C961.9,593.2,940.4,582.4,913.8,582.3L913.8,582.3z"/>
	
		<linearGradient id="SVGID_10_" gradientUnits="userSpaceOnUse" x1="316.9955" y1="-132.4782" x2="1217.4081" y2="535.0331" gradientTransform="matrix(1 0 0 -1 0 802)">
		<stop  offset="0" style="stop-color:#5FBB53"/>
		<stop  offset="1" style="stop-color:#3D90CE"/>
	</linearGradient>
	<path class="st10" d="M812.1,552.7c6.8,3.3,13,6.6,19.8,9.6c4.6,2.1,4.8,3.6-1.1,5.1l-23-11.9L812.1,552.7z"/>
	
		<linearGradient id="SVGID_11_" gradientUnits="userSpaceOnUse" x1="415.071" y1="-19.9052" x2="1093.6418" y2="483.1461" gradientTransform="matrix(1 0 0 -1 0 802)">
		<stop  offset="0" style="stop-color:#5FBB53"/>
		<stop  offset="1" style="stop-color:#3D90CE"/>
	</linearGradient>
	<path class="st11" d="M798.2,544.6l-8.1,3.2c-2.6-1.6-5.1-3.3-7.3-5.1c-0.2-0.2,3.2-2,3.7-1.9C790.5,542,794.4,543.2,798.2,544.6z"
		/>
	
		<linearGradient id="SVGID_12_" gradientUnits="userSpaceOnUse" x1="598.7693" y1="-37.956" x2="1137.9056" y2="361.7271" gradientTransform="matrix(1 0 0 -1 0 802)">
		<stop  offset="0" style="stop-color:#5FBB53"/>
		<stop  offset="1" style="stop-color:#3D90CE"/>
	</linearGradient>
	<path class="st12" d="M913.7,619c-13.6,0.5-25.5-5.5-25.4-12.6c-0.1-7,11.3-12.8,25.4-12.8c0.1,0,0.1,0,0.2,0
		c13.7,0,26.4,6.1,25.8,12.8C939,612.9,929.5,619.4,913.7,619z M897,606.4c0,4.5,8,8.5,16.8,8.5c8.9,0,17-4.2,17-8.6
		c-0.1-4.6-7.6-8.4-16.9-8.3c0,0-0.1,0-0.1,0c-9-0.1-16.6,3.4-16.8,8C897,606.1,897,606.3,897,606.4z"/>
	
		<linearGradient id="SVGID_13_" gradientUnits="userSpaceOnUse" x1="312.3234" y1="220.2259" x2="824.0388" y2="599.5807" gradientTransform="matrix(1 0 0 -1 0 802)">
		<stop  offset="0" style="stop-color:#5FBB53"/>
		<stop  offset="1" style="stop-color:#3D90CE"/>
	</linearGradient>
	<path class="st13" d="M280.2,578.1c11.6-0.1,22.9,1.8,32.1,5.3c3.2,1.2,5.1,1.1,7.7-0.3c6.3-3.3,12.9-6.4,19.3-9.7
		c2.2-1.2,4-1.8,7-0.4s1.4,2.3-0.8,3.4c-6.3,3.1-12.3,6.4-18.8,9.4c-3.7,1.6-3,2.8-0.6,4.6c16.9,12,12.5,28.4-10.1,37.7
		c-33.8,13.9-83.8,5.3-92.2-16.2c-6.2-15.9,11.9-28.7,41.6-33.1C270.1,578.1,275.3,578.3,280.2,578.1z M327.5,606.4
		c0-13.3-21.6-24.1-48.2-24.1c-26.6,0-48.1,10.8-48.1,24.1c-0.5,12.9,22,24,47.8,24.1C305.6,630.5,327.3,619.7,327.5,606.4
		L327.5,606.4z"/>
	
		<linearGradient id="SVGID_14_" gradientUnits="userSpaceOnUse" x1="321.037" y1="203.9912" x2="843.7899" y2="591.5285" gradientTransform="matrix(1 0 0 -1 0 802)">
		<stop  offset="0" style="stop-color:#5FBB53"/>
		<stop  offset="1" style="stop-color:#3D90CE"/>
	</linearGradient>
	<path class="st14" d="M386.7,555.5c-6.7,3.4-13.1,6.5-19.1,9.9c-4.1,2.3-7.2,2.4-10.1-0.5l23.8-11.5L386.7,555.5z"/>
	
		<linearGradient id="SVGID_15_" gradientUnits="userSpaceOnUse" x1="314.5874" y1="192.2593" x2="887.2587" y2="616.8032" gradientTransform="matrix(1 0 0 -1 0 802)">
		<stop  offset="0" style="stop-color:#5FBB53"/>
		<stop  offset="1" style="stop-color:#3D90CE"/>
	</linearGradient>
	<path class="st15" d="M403,548.6l-6.4-4c3.2-1.3,6.6-2.5,10.1-3.6c0.4-0.1,4,1.6,3.8,1.8C408.2,544.8,405.7,546.7,403,548.6z"/>
	
		<linearGradient id="SVGID_16_" gradientUnits="userSpaceOnUse" x1="315.8872" y1="222.7648" x2="852.7651" y2="620.7735" gradientTransform="matrix(1 0 0 -1 0 802)">
		<stop  offset="0" style="stop-color:#5FBB53"/>
		<stop  offset="1" style="stop-color:#3D90CE"/>
	</linearGradient>
	<path class="st16" d="M254.2,606.3c-1.1-6.8,10.9-12.8,25.2-12.7c14.1,0,25.5,5.6,25.6,12.7c0,0,0,0.1,0,0.1
		c0,6.8-12.2,13.2-25.6,12.9C266.4,619,253.3,614.2,254.2,606.3z M279.3,598c-9.1,0-17.1,4-17.1,8.4c0,4.4,8.3,8.5,17.1,8.5
		c9.3,0,16.7-3.8,16.7-8.4c0,0,0,0,0,0c0.2-4.5-6.9-8.3-15.9-8.4C279.9,598,279.6,598,279.3,598z"/>
	
		<linearGradient id="SVGID_17_" gradientUnits="userSpaceOnUse" x1="119.9913" y1="401.9493" x2="705.4346" y2="835.9615" gradientTransform="matrix(1 0 0 -1 0 802)">
		<stop  offset="0" style="stop-color:#5FBB53"/>
		<stop  offset="1" style="stop-color:#3D90CE"/>
	</linearGradient>
	<path class="st17" d="M155.5,373.8c8.4,4,13.8,9.3,15.4,15c0.6,2,2.1,2.5,5.8,2.5c9.1-0.1,18.2,0,27.3-0.1c3.2,0,5.4,0.1,5.5,2.1
		c0.1,2.1-2.2,2.2-5.4,2.2c-8.9,0-17.8,0.2-26.6,0c-4.9-0.1-6.1,1-6.9,3.1c-4.8,14.4-31,24.5-60.1,23.3c-43.6-2-67.1-25.7-42.8-43.9
		c17.8-13.5,48.7-16.2,76.1-8.8C148.2,370.3,151.6,372.3,155.5,373.8z M149.2,410.6c18.7-9.5,18.5-24.7-0.4-34
		c-18.9-9.3-49.4-9.3-68.1,0.2c-18.5,9-18.1,24.8,0.2,34C99.9,420,130.4,420,149.2,410.6L149.2,410.6z"/>
	
		<linearGradient id="SVGID_18_" gradientUnits="userSpaceOnUse" x1="112.1262" y1="406.0942" x2="649.0266" y2="804.1196" gradientTransform="matrix(1 0 0 -1 0 802)">
		<stop  offset="0" style="stop-color:#5FBB53"/>
		<stop  offset="1" style="stop-color:#3D90CE"/>
	</linearGradient>
	<path class="st18" d="M97.2,384.8c8.8-5.2,25.7-5.2,35.8-0.2c10.1,4.9,10.3,13,0.4,18c-0.1,0-0.1,0.1-0.2,0.1
		c-9.6,4.9-27.3,5.1-36.4,0.2C88,398.1,85.4,390.1,97.2,384.8z M126.8,387.7c-6.5-3.2-17.7-3.2-23.9,0s-6,8.9,0.3,12.1
		c6.6,3.2,17.2,3.2,23.7-0.1c0,0,0,0,0.1,0c6.5-3.1,6.8-8.3,0.5-11.6C127.2,387.9,127,387.8,126.8,387.7L126.8,387.7z"/>
	
		<linearGradient id="SVGID_19_" gradientUnits="userSpaceOnUse" x1="489.3608" y1="-23.0158" x2="1074.731" y2="410.9422" gradientTransform="matrix(1 0 0 -1 0 802)">
		<stop  offset="0" style="stop-color:#5FBB53"/>
		<stop  offset="1" style="stop-color:#3D90CE"/>
	</linearGradient>
	<path class="st19" d="M1044.5,413.4c-8.4-4-13.8-9.3-15.4-15c-0.6-2-2.1-2.5-5.8-2.5c-9.1,0.1-18.2,0-27.3,0.1
		c-3.2,0-5.4-0.1-5.6-2.1c-0.1-2.1,2.2-2.2,5.4-2.2c8.9,0,17.8-0.2,26.6,0c4.9,0.1,6.1-1,6.9-3.1c4.8-14.4,31-24.6,60.1-23.3
		c43.6,2,67.1,25.7,42.9,43.9c-17.9,13.5-48.7,16.2-76.1,8.9C1051.8,416.9,1048.3,415,1044.5,413.4z M1050.7,376.7
		c-18.5,9.6-17.9,24.8,1.2,34c18.8,9.1,48.7,9,67.3-0.2c18.5-9,18.1-24.8-0.2-34C1100,367.2,1069.5,367.2,1050.7,376.7L1050.7,376.7
		z"/>
	
		<linearGradient id="SVGID_20_" gradientUnits="userSpaceOnUse" x1="546.0903" y1="9.1017" x2="1083.0121" y2="407.143" gradientTransform="matrix(1 0 0 -1 0 802)">
		<stop  offset="0" style="stop-color:#5FBB53"/>
		<stop  offset="1" style="stop-color:#3D90CE"/>
	</linearGradient>
	<path class="st20" d="M1102.8,402.4c-8.8,5.2-25.7,5.2-35.8,0.2c-10.1-4.9-10.3-13-0.4-18c0,0,0.1,0,0.1-0.1
		c9.6-4.9,27.3-5.1,36.4-0.2C1111.9,389.1,1114.5,397.1,1102.8,402.4z M1073.1,399.5c6.5,3.2,17.7,3.2,24,0s6-8.9-0.3-12
		c-6.6-3.2-17.3-3.2-23.7,0.2c0,0,0,0,0,0c-6.5,3.1-6.8,8.3-0.5,11.6C1072.7,399.3,1072.9,399.4,1073.1,399.5L1073.1,399.5z"/>
</g>
</svg>
