<?xml version="1.0" encoding="utf-8"?>
<!-- Generator: Adobe Illustrator 24.0.1, SVG Export Plug-In . SVG Version: 6.00 Build 0)  -->
<svg version="1.1" id="Layer_1" xmlns="http://www.w3.org/2000/svg" xmlns:xlink="http://www.w3.org/1999/xlink" x="0px" y="0px"
	 viewBox="0 0 1200 800" style="enable-background:new 0 0 1200 800;" xml:space="preserve">
<style type="text/css">
	.st0{fill:none;}
	.st1{fill:url(#SVGID_1_);}
	.st2{fill:url(#SVGID_2_);}
	.st3{fill:url(#SVGID_3_);}
	.st4{fill:url(#SVGID_4_);}
	.st5{fill:url(#SVGID_5_);}
	.st6{fill:url(#SVGID_6_);}
	.st7{fill:url(#SVGID_7_);}
	.st8{fill:url(#SVGID_8_);}
</style>
<title>Asset 5</title>
<rect class="st0" width="1200" height="800"/>
<path class="st0" d="M-326.2,145.1L-326.2,145.1L-326.2,145.1L-326.2,145.1z"/>
<polygon class="st0" points="-324.1,145.3 -323.9,142.7 -326,143 -325.9,145.2 "/>
<path class="st0" d="M-400,192.3L-400,192.3C-400,192.3-399.9,192.3-400,192.3L-400,192.3z"/>
<path class="st0" d="M-228.3,192.3L-228.3,192.3L-228.3,192.3L-228.3,192.3z"/>
<g>
	<g>
		<linearGradient id="SVGID_1_" gradientUnits="userSpaceOnUse" x1="270.3951" y1="685.0164" x2="1049.0471" y2="386.8675">
			<stop  offset="0" style="stop-color:#5FBB53"/>
			<stop  offset="1" style="stop-color:#3D90CE"/>
		</linearGradient>
		<path class="st1" d="M1019,317.9H410.1c-9.2,0-16.6,7.4-16.6,16.4v34.5v6.7v320.2c0,9.1,7.4,16.4,16.6,16.4H1019
			c9.2,0,16.6-7.4,16.6-16.4V375.4v-6.7v-34.5C1035.6,325.2,1028.1,317.9,1019,317.9z M1028.5,688.1c0,9.1-7.4,16.4-16.6,16.4H417.2
			c-9.2,0-16.6-7.4-16.6-16.4V375.4h627.9V688.1z M1028.5,368.8H400.6v-27c0-9.1,7.4-16.4,16.6-16.4h594.7c9.2,0,16.6,7.4,16.6,16.4
			V368.8z"/>
		<linearGradient id="SVGID_2_" gradientUnits="userSpaceOnUse" x1="177.5091" y1="442.4334" x2="956.1611" y2="144.2845">
			<stop  offset="0" style="stop-color:#5FBB53"/>
			<stop  offset="1" style="stop-color:#3D90CE"/>
		</linearGradient>
		<ellipse class="st2" cx="426" cy="347.3" rx="8.2" ry="8.1"/>
		<linearGradient id="SVGID_3_" gradientUnits="userSpaceOnUse" x1="180.6352" y1="450.5975" x2="959.2872" y2="152.4486">
			<stop  offset="0" style="stop-color:#5FBB53"/>
			<stop  offset="1" style="stop-color:#3D90CE"/>
		</linearGradient>
		<ellipse class="st3" cx="450.5" cy="347.3" rx="8.2" ry="8.1"/>
		<linearGradient id="SVGID_4_" gradientUnits="userSpaceOnUse" x1="183.7613" y1="458.7616" x2="962.4133" y2="160.6127">
			<stop  offset="0" style="stop-color:#5FBB53"/>
			<stop  offset="1" style="stop-color:#3D90CE"/>
		</linearGradient>
		<ellipse class="st4" cx="474.9" cy="347.3" rx="8.2" ry="8.1"/>
		<linearGradient id="SVGID_5_" gradientUnits="userSpaceOnUse" x1="242.9834" y1="613.4273" x2="1021.6354" y2="315.2784">
			<stop  offset="0" style="stop-color:#5FBB53"/>
			<stop  offset="1" style="stop-color:#3D90CE"/>
		</linearGradient>
		<path class="st5" d="M442.3,586.7c0,2,0.7,4.3,2,6.9c1.3,2.6,2.6,3.8,3.9,3.8l0.7-0.1l86.7-54.3c1.9-1.2,2.9-3.9,2.9-8.1
			c0-4.1-1-6.9-2.9-8.2l-86.7-54.2l-0.7-0.1c-1.3,0-2.6,1.3-3.9,3.8c-1.3,2.6-2,4.9-2,6.9c0,1.5,0.4,2.4,1.2,2.9l78.3,48.9
			l-78.3,48.9C442.7,584.3,442.3,585.3,442.3,586.7z"/>
		<linearGradient id="SVGID_6_" gradientUnits="userSpaceOnUse" x1="284.1283" y1="720.8823" x2="1062.7803" y2="422.7333">
			<stop  offset="0" style="stop-color:#5FBB53"/>
			<stop  offset="1" style="stop-color:#3D90CE"/>
		</linearGradient>
		<path class="st6" d="M546.6,607.7h105.9c1.8,0,2.7-2.5,2.7-7.4c0-5.1-0.9-7.7-2.7-7.7H546.4c-1.8,0-2.7,2.6-2.7,7.7
			C543.7,605.2,544.7,607.7,546.6,607.7z"/>
	</g>
	<linearGradient id="SVGID_7_" gradientUnits="userSpaceOnUse" x1="163.1261" y1="404.8704" x2="941.7781" y2="106.7214">
		<stop  offset="0" style="stop-color:#5FBB53"/>
		<stop  offset="1" style="stop-color:#3D90CE"/>
	</linearGradient>
	<path class="st7" d="M386.1,541.1h-75H311c-8.4,0-16.3-3.8-21.6-10.3L177,391.1c-0.5-0.7-1.1-1.4-1.5-2.1c-4-6.2-5.4-13.9-3.7-21
		l40-174.3c1.9-8.2,7.4-15,15-18.7l162.4-77.5c3.3-1.6,6.9-2.5,10.6-2.8h0.1h0.1h1.1h0.2c4.1,0,8.2,0.9,11.9,2.7l162.4,77.5
		c7.6,3.6,13.1,10.4,15,18.6l27.1,117.9h6.9L597.2,192c-2.4-10.2-9.1-18.6-18.6-23.1L416.3,91.4c-4.6-2.2-9.8-3.4-14.9-3.4
		c-0.6,0-1.2,0-1.8,0c-4.6,0.2-9,1.4-13.2,3.3l-162.6,77.6c-9.5,4.5-16.3,12.9-18.6,23.1l-39.9,174.4c-2,8.9-0.4,18.4,4.6,26
		c0.6,1,1.3,1.9,2,2.8L284.3,535c6.6,8.1,16.3,12.8,26.8,12.8h0.1l74.9,0V541.1z"/>
	<linearGradient id="SVGID_8_" gradientUnits="userSpaceOnUse" x1="159.7926" y1="396.1646" x2="938.4446" y2="98.0156">
		<stop  offset="0" style="stop-color:#5FBB53"/>
		<stop  offset="1" style="stop-color:#3D90CE"/>
	</linearGradient>
	<path class="st8" d="M386.1,429.2c-6.3-0.9-12.5-2.4-18.6-4.5l-4.8-1.6l2.5-4.4l20.9-37.8v-40l-1.1-0.5l-1.8-0.9l-0.5-2l-3.4-15
		l-0.5-2l1.3-1.6l9.7-12.2l1.3-1.6h2.1h15.7V305h2l1.3,1.6l3.8,4.8h25.7c0-0.4,0.1-0.9,0.2-1.3c0.4-1.9,1.3-3.8,2.6-5.3v-0.3
		l1.4-1.3l35.3-31.5l6.6-5.5l4.4,7.1c6.6,11.7,11,24.8,12.9,38.1h17.1c-2.3-19-9-37.3-19.8-53.3l-2-3l2.7-2.5c0.4-0.4,1-0.9,1.6-1.4
		c0.2-0.2,0.4-0.3,0.6-0.5c0.3-2.4,1.3-4.6,2.9-6.4l0.2-0.2l0.2-0.2c4.7-4,9.8-7.6,15.2-10.6h0.1h0.1c2.6-1.3,5.1-2.8,7.5-4.4l2-1.6
		l0.1-0.1l0.1-0.1c2.6-1.9,3.3-5.6,1.5-8.3c-1.1-1.2-2.7-1.9-4.3-1.9c-1.4,0-2.8,0.5-3.9,1.5l-0.2,0.1l-0.2,0.1
		c-0.6,0.4-1.2,0.9-1.7,1.4c-2.1,2-4.2,4.2-6.1,6.4c-4.1,4.6-8.8,8.7-13.7,12.4l-0.4,0.3l-0.5,0.2c-1.8,0.8-3.8,1.2-5.7,1.2
		c-0.2,0-0.4,0-0.7,0l-2.4,1.7l-3,2.1l-2.5-2.7c-20.6-21.6-48.3-35-78.1-37.7l-3.9-0.4v-3.9c0-0.5-0.1-1.5-0.1-2.3
		c-1.6-1.7-2.7-3.8-3.2-6.1l-0.1-0.3v-0.3c-0.2-6.2,0.2-12.4,1.2-18.4v-0.1V172c0.6-2.8,1-5.7,1.2-8.5v-2.6c0-3.4-2.1-6.2-4.8-6.7
		h-0.4c-3.3,0.2-5.8,3-5.7,6.3v0.1v0.1v0.3v2.4c0.2,2.9,0.7,5.7,1.2,8.5v0.1v0.1c1,6.1,1.3,12.3,1.1,18.4v0.5l-0.1,0.5
		c-0.6,2.2-1.6,4.1-3.1,5.8l-0.1,2.5l-0.2,3.7l-3.7,0.3c-29.9,2.5-57.7,15.9-78.4,37.7l-2.5,2.6l-3-2.1c-0.6-0.4-1.4-1-2.1-1.5
		c-0.4,0-0.8,0.1-1.3,0.1c-1.9,0-3.8-0.5-5.5-1.4L298,239l-0.3-0.2c-4.9-3.7-9.5-7.9-13.7-12.4l-0.1-0.1v-0.1
		c-1.9-2.2-3.9-4.4-6-6.4c-0.2-0.2-0.6-0.5-0.9-0.7c-0.3-0.3-0.7-0.6-1-0.8c-1.2-1-2.7-1.5-4.2-1.5c-0.1,0-0.2,0-0.3,0
		c-1.5,0-2.9,0.6-3.8,1.8c-1.8,2.7-1.2,6.3,1.5,8.3l1.7,1.3v0.3c0.1,0,0.1,0.1,0.1,0.1c2.4,1.6,5,3.1,7.6,4.5h0.1h0.1
		c5.3,3.1,10.4,6.6,15.1,10.6l0.4,0.4l0.3,0.5c1.2,1.8,2,3.8,2.4,5.9l1.9,1.7l2.7,2.5l-2,3.1c-16.6,24.9-23.4,55-19.1,84.7l0.5,3.6
		l-3.5,1l-2.7,0.8c-1.3,1.6-3,3.6-5.2,4.5l-0.2,0.1l-0.2,0.1c-5.9,1.6-12.1,2.6-18.2,3h-0.1h-0.1c-2.9,0.1-5.9,0.3-8.7,0.7
		c-0.6,0.1-1.5,0.3-2.1,0.5h-0.1l-0.5,0.1h-0.6c-1.3,0.3-2.5,1.1-3.3,2.2c-0.9,1.2-1.2,2.7-1,4.1c0.4,2.7,2.7,4.6,5.4,4.6
		c0.3,0,0.6,0,0.9-0.1c0.2,0,0.4-0.1,0.7-0.2l0.6-0.2h0.4c0.7-0.2,1.4-0.3,1.9-0.4h0.1c2.7-0.9,5.4-1.9,8-3.1h0.1h0.1
		c5.7-2.3,11.7-4.1,17.8-5.2l0.5-0.1h0.5c2.2,0.1,4.3,0.7,6.3,1.8l2.6-0.4l3.6-0.6l1.1,3.5c9.2,28.4,28.4,52.4,54.1,67.6l3.2,1.9
		l-1.4,3.4l-1.1,2.7c0.6,2,0.8,4,0.5,6.1l-0.1,0.6l-0.2,0.5c-2.5,5.8-5.6,11.3-9.2,16.5l-0.1,0.1l-0.1,0.1c-1.8,2.3-3.4,4.8-4.9,7.3
		c-0.2,0.3-0.4,0.8-0.6,1.2c-0.2,0.5-0.4,0.9-0.6,1.3l-0.1,0.1l-0.1,0.1c-1.6,2.6-0.8,6,1.8,7.6c0.9,0.5,1.9,0.8,2.9,0.8
		c1.9,0,3.7-1,4.7-2.6c0.2-0.3,0.4-0.7,0.5-1l0.1-0.3l0.2-0.3c0.2-0.4,0.6-1.1,0.8-1.6l0.2-0.3c1-2.7,1.9-5.4,2.5-8.2l0.1-0.3
		l0.1-0.3c0.7-1.9,1.4-3.8,2.1-5.7c1.6-4.8,3.2-9.4,6.1-12.9l0.2-0.2l0.2-0.2c1.2-1.1,2.7-2,4.2-2.5l1.3-2.4l1.8-3.3l3.5,1.3
		c9.2,3.6,18.7,5.9,28.4,7.2V429.2z M413.9,221.1c22.7,2.8,44.3,13.2,60.7,29.2l3.6,3.6l-4.2,2.9l-41.5,29.4
		c-2.2,1.6-4.8,2.5-7.6,2.5c-4,0-7.6-1.8-10.1-4.9c-1.7-2.1-2.7-4.7-2.8-7.4l-2.9-50.9l-0.3-5.1L413.9,221.1z M327.5,250.4
		c13.9-13.7,31.3-23.1,50.3-27.4c2.5-0.5,4.8-0.9,7-1.3v-0.6h4.1l0.1,2.1l2.1-0.3l-0.1,2.6l2.1,0.1l-2.8,51l-0.1,2.1l-0.4,0.3
		c-1.3,5.7-6.4,9.9-12.4,9.9h-0.1h-0.1c-2.7,0-5.3-0.9-7.5-2.5l-41.8-29.5l-4.2-2.9L327.5,250.4z M296.9,336.6
		c-2.5-21.8,2.1-44.1,12.8-63.1l4.3-7.1l6.7,5.3l35.5,31.8l1.4,1.3v0.4c3.9,4.6,4,11.4,0.1,16.3c-1,1.2-2.2,2.2-3.5,3v0.5l-3.1,0.9
		l-48.8,14.3l-4.8,1.4L296.9,336.6z M350.9,411.7l-1.9,4.7l-4.3-2.8c-19.3-12.4-34.3-31.1-42.1-52.7l-1.7-4.8l5-0.9l50.2-8.5l5-0.8
		v1.1c4.8,1,8.6,4.7,9.8,9.6c0.4,1.8,0.4,3.6,0,5.3l0.3,0.4l-0.9,2.2L350.9,411.7z"/>
</g>
</svg>
