<svg xmlns="http://www.w3.org/2000/svg" xmlns:xlink="http://www.w3.org/1999/xlink" viewBox="0 0 1200 800"><defs><style>.cls-1{fill:none;}.cls-2{fill:url(#New_Gradient_Swatch_2);}.cls-3{fill:url(#New_Gradient_Swatch_2-2);}.cls-4{fill:url(#New_Gradient_Swatch_2-3);}.cls-5{fill:url(#New_Gradient_Swatch_2-4);}.cls-6{fill:url(#New_Gradient_Swatch_2-5);}.cls-7{fill:url(#New_Gradient_Swatch_2-6);}.cls-8{fill:url(#New_Gradient_Swatch_2-7);}.cls-9{fill:url(#New_Gradient_Swatch_2-8);}.cls-10{fill:url(#New_Gradient_Swatch_2-9);}.cls-11{fill:url(#New_Gradient_Swatch_2-10);}.cls-12{fill:url(#New_Gradient_Swatch_2-11);}.cls-13{fill:url(#New_Gradient_Swatch_2-12);}.cls-14{fill:url(#New_Gradient_Swatch_2-13);}.cls-15{fill:url(#New_Gradient_Swatch_2-14);}.cls-16{fill:url(#New_Gradient_Swatch_2-15);}.cls-17{fill:url(#New_Gradient_Swatch_2-16);}.cls-18{fill:url(#New_Gradient_Swatch_2-17);}.cls-19{fill:url(#New_Gradient_Swatch_2-18);}.cls-20{fill:url(#New_Gradient_Swatch_2-19);}.cls-21{fill:url(#New_Gradient_Swatch_2-20);}.cls-22{fill:url(#New_Gradient_Swatch_2-21);}.cls-23{fill:url(#New_Gradient_Swatch_2-22);}.cls-24{fill:url(#New_Gradient_Swatch_2-23);}.cls-25{fill:url(#New_Gradient_Swatch_2-24);}.cls-26{fill:url(#New_Gradient_Swatch_2-25);}.cls-27{fill:url(#New_Gradient_Swatch_2-26);}.cls-28{fill:url(#New_Gradient_Swatch_2-27);}.cls-29{fill:url(#New_Gradient_Swatch_2-28);}.cls-30{fill:url(#New_Gradient_Swatch_2-29);}.cls-31{fill:url(#New_Gradient_Swatch_2-30);}.cls-32{fill:url(#New_Gradient_Swatch_2-31);}.cls-33{fill:url(#New_Gradient_Swatch_2-32);}.cls-34{fill:url(#New_Gradient_Swatch_2-33);}</style><linearGradient id="New_Gradient_Swatch_2" x1="381.4" y1="561.64" x2="814.4" y2="240.64" gradientUnits="userSpaceOnUse"><stop offset="0" stop-color="#5fbb53"/><stop offset="1" stop-color="#3d90ce"/></linearGradient><linearGradient id="New_Gradient_Swatch_2-2" x1="445.58" y1="648.21" x2="878.58" y2="327.21" xlink:href="#New_Gradient_Swatch_2"/><linearGradient id="New_Gradient_Swatch_2-3" x1="317.38" y1="475.29" x2="750.38" y2="154.29" xlink:href="#New_Gradient_Swatch_2"/><linearGradient id="New_Gradient_Swatch_2-4" x1="251.22" y1="386.04" x2="684.22" y2="65.04" xlink:href="#New_Gradient_Swatch_2"/><linearGradient id="New_Gradient_Swatch_2-5" x1="269.81" y1="411.11" x2="702.81" y2="90.11" xlink:href="#New_Gradient_Swatch_2"/><linearGradient id="New_Gradient_Swatch_2-6" x1="205.64" y1="324.56" x2="638.64" y2="3.56" xlink:href="#New_Gradient_Swatch_2"/><linearGradient id="New_Gradient_Swatch_2-7" x1="198.06" y1="314.33" x2="631.06" y2="-6.67" xlink:href="#New_Gradient_Swatch_2"/><linearGradient id="New_Gradient_Swatch_2-8" x1="236.68" y1="366.44" x2="669.68" y2="45.44" xlink:href="#New_Gradient_Swatch_2"/><linearGradient id="New_Gradient_Swatch_2-9" x1="275.28" y1="418.5" x2="708.28" y2="97.5" xlink:href="#New_Gradient_Swatch_2"/><linearGradient id="New_Gradient_Swatch_2-10" x1="289.72" y1="437.97" x2="722.72" y2="116.97" xlink:href="#New_Gradient_Swatch_2"/><linearGradient id="New_Gradient_Swatch_2-11" x1="232.66" y1="361.01" x2="665.66" y2="40.01" xlink:href="#New_Gradient_Swatch_2"/><linearGradient id="New_Gradient_Swatch_2-12" x1="525.66" y1="756.23" x2="958.66" y2="435.23" xlink:href="#New_Gradient_Swatch_2"/><linearGradient id="New_Gradient_Swatch_2-13" x1="486.69" y1="703.67" x2="919.69" y2="382.67" xlink:href="#New_Gradient_Swatch_2"/><linearGradient id="New_Gradient_Swatch_2-14" x1="472.04" y1="683.92" x2="905.04" y2="362.92" xlink:href="#New_Gradient_Swatch_2"/><linearGradient id="New_Gradient_Swatch_2-15" x1="529.87" y1="761.91" x2="962.87" y2="440.91" xlink:href="#New_Gradient_Swatch_2"/><linearGradient id="New_Gradient_Swatch_2-16" x1="353.4" y1="523.87" x2="786.4" y2="202.87" xlink:href="#New_Gradient_Swatch_2"/><linearGradient id="New_Gradient_Swatch_2-17" x1="361.07" y1="534.22" x2="794.07" y2="213.22" xlink:href="#New_Gradient_Swatch_2"/><linearGradient id="New_Gradient_Swatch_2-18" x1="363.41" y1="537.38" x2="796.41" y2="216.38" xlink:href="#New_Gradient_Swatch_2"/><linearGradient id="New_Gradient_Swatch_2-19" x1="353.35" y1="523.81" x2="786.35" y2="202.81" xlink:href="#New_Gradient_Swatch_2"/><linearGradient id="New_Gradient_Swatch_2-20" x1="555.92" y1="797.06" x2="988.92" y2="476.06" xlink:href="#New_Gradient_Swatch_2"/><linearGradient id="New_Gradient_Swatch_2-21" x1="510.34" y1="735.57" x2="943.34" y2="414.57" xlink:href="#New_Gradient_Swatch_2"/><linearGradient id="New_Gradient_Swatch_2-22" x1="491.75" y1="710.5" x2="924.75" y2="389.5" xlink:href="#New_Gradient_Swatch_2"/><linearGradient id="New_Gradient_Swatch_2-23" x1="563.5" y1="807.28" x2="996.5" y2="486.28" xlink:href="#New_Gradient_Swatch_2"/><linearGradient id="New_Gradient_Swatch_2-24" x1="408.16" y1="597.74" x2="841.16" y2="276.74" xlink:href="#New_Gradient_Swatch_2"/><linearGradient id="New_Gradient_Swatch_2-25" x1="400.49" y1="587.39" x2="833.49" y2="266.39" xlink:href="#New_Gradient_Swatch_2"/><linearGradient id="New_Gradient_Swatch_2-26" x1="398.14" y1="584.23" x2="831.14" y2="263.23" xlink:href="#New_Gradient_Swatch_2"/><linearGradient id="New_Gradient_Swatch_2-27" x1="408.21" y1="597.8" x2="841.21" y2="276.8" xlink:href="#New_Gradient_Swatch_2"/><linearGradient id="New_Gradient_Swatch_2-28" x1="263.12" y1="402.09" x2="696.12" y2="81.09" xlink:href="#New_Gradient_Swatch_2"/><linearGradient id="New_Gradient_Swatch_2-29" x1="262.94" y1="401.85" x2="695.94" y2="80.85" xlink:href="#New_Gradient_Swatch_2"/><linearGradient id="New_Gradient_Swatch_2-30" x1="500.01" y1="721.64" x2="933.01" y2="400.64" xlink:href="#New_Gradient_Swatch_2"/><linearGradient id="New_Gradient_Swatch_2-31" x1="500.19" y1="721.88" x2="933.19" y2="400.88" xlink:href="#New_Gradient_Swatch_2"/><linearGradient id="New_Gradient_Swatch_2-32" x1="380.79" y1="560.83" x2="813.79" y2="239.83" xlink:href="#New_Gradient_Swatch_2"/><linearGradient id="New_Gradient_Swatch_2-33" x1="380.25" y1="560.09" x2="813.25" y2="239.09" xlink:href="#New_Gradient_Swatch_2"/></defs><title>Asset 5</title><g id="Layer_2" data-name="Layer 2"><g id="Layer_1-2" data-name="Layer 1"><rect class="cls-1" width="1200" height="800"/><path class="cls-2" d="M502.4,268.8c8.93,6.66,17.82,13.39,26.87,19.9a5.6,5.6,0,0,0,4.61.38c10.14-4.18,20-9.09,30.33-12.7,4.83-1.69,6.57-4.13,7.13-8.7,1.18-9.65,2.64-19.27,4-29.22h48.35c1.35,9.4,2.77,18.82,4,28.27,1,7.77,1.13,7.29,8.46,10,9.6,3.5,18.93,7.76,28.26,12,2.21,1,3.47,1.7,5.83-.15,8.64-6.8,17.6-13.19,27-20.13L723,294.46c8.15,8.24,8.15,8.24,1,17.72-4.12,5.47-8.17,11-12.38,16.41-1.8,2.31-2.08,4.35-.53,7A109.71,109.71,0,0,1,724,366.86c.76,3.27,2.53,4.37,5.92,4.75,10.38,1.19,20.7,2.9,31.55,4.48v15.84c0,9.16-.24,18.32.08,27.46.15,4.17-1.46,5.42-5.29,5.85-9.21,1-18.37,2.57-27.58,3.63-2.75.31-4,1.59-4.54,4A115.31,115.31,0,0,1,710.92,465c-1.56,2.63-1.08,4.65.67,6.93,5.64,7.33,11,14.85,16.76,22.11,2.09,2.66,2.09,4.42-.36,6.8q-14.29,13.86-28.27,28c-2.22,2.26-3.56,2.17-6,.29q-11.43-9-23.31-17.38a6.56,6.56,0,0,0-5.39-.43c-10.92,4.36-21.59,9.38-32.64,13.38-3.7,1.34-4.44,3.41-4.88,6.41-1.29,8.86-2.62,17.71-3.72,26.6-.31,2.56-1.1,3.71-3.82,3.69q-20.49-.14-41,0c-2.4,0-3.37-.87-3.68-3.35-1.1-9-2.47-18-3.73-27-.43-3.1-1.45-5-5-6.33-11.14-4.17-21.93-9.25-33-13.72a6.2,6.2,0,0,0-5.06.75c-7.68,5.43-15.28,11-22.66,16.81-2.65,2.1-4.27,2.31-6.75-.21q-13.71-13.95-27.79-27.53c-2.47-2.39-2.39-4.15-.28-6.83,5.74-7.24,11.09-14.79,16.7-22.13,1.88-2.46,1.95-4.6.32-7.26a109.55,109.55,0,0,1-12.93-31.2c-.68-2.75-2-4.3-5.08-4.65-8.75-1-17.45-2.47-26.2-3.47-5.47-.62-6.2-1.11-6.21-6.41,0-12.9.06-25.8-.1-38.7,0-3,.88-4,4-4.4q14.89-1.79,29.68-4.39c1.4-.24,3.17-2.27,3.57-3.79a122.58,122.58,0,0,1,13.31-32.11c1.57-2.62,1-4.7-.76-7q-8.65-11.12-17.1-22.4c-1.38-1.83-2.27-3.59,0-5.81,10.35-10.12,20.53-20.41,30.79-30.63A6.89,6.89,0,0,1,502.4,268.8Zm78.22-24.37c-1.52,10.31-3,20.21-4.38,30.15-.46,3.33-1.74,5.16-5.31,6a105.61,105.61,0,0,0-35.7,14.9c-3.24,2.15-5.53,1.46-8.25-.64-7.89-6.1-15.89-12.06-23.59-17.87l-27,26.71a19.55,19.55,0,0,0,1,1.71c5.94,8,12,16,17.78,24.11.76,1.05,1.27,3.24.69,4.13-7.93,12.32-13.19,25.71-16.9,39.81a5.14,5.14,0,0,1-3.42,3c-9.45,1.5-18.94,2.78-28.44,3.93-2.84.34-3.94,1.66-3.94,4.36q0,15.52-.06,31.06c0,2.76,1.35,4,4.06,4.33,7.71.88,15.4,2,23.12,2.84,7.42.85,8.73,2.05,10.26,9.51a33.21,33.21,0,0,0,2,6.41c4.37,10.05,8.85,20.06,13.56,30.7-5.36,7.07-11.32,14.9-17.25,22.75-1.91,2.52-3.84,4.76-.47,7.95,7.44,7.07,14.56,14.47,21.81,21.73,1.66,1.66,3.12,2.09,5.31.36,7.27-5.72,14.8-11.09,22.09-16.77,2.6-2,4.48-2.24,7.45-.3a96.69,96.69,0,0,0,34,14.4c5.56,1.1,6.57,3.83,7,8.38.79,7.57,1.85,15.11,2.94,22.64.62,4.26,2.37,6.73,7.6,6.39,8.52-.56,17.1-.16,25.65-.17,6.43,0,7-.51,7.9-6.92.13-.89.08-1.8.2-2.69,1-7.54,1.9-15.11,3.3-22.58.32-1.69,2.33-4,3.94-4.38a113.83,113.83,0,0,0,36.94-15.48c2.34-1.49,4-1.69,6.32.13,7.28,5.7,14.84,11,22.11,16.73,2.74,2.16,4.41,1.76,6.7-.65,6.22-6.59,12.71-12.94,19.09-19.39,4.8-4.85,4.73-4.81.56-10.27q-7.87-10.31-15.49-20.79c-.69-1-1.15-3-.62-3.81,8.06-12.23,13.17-25.66,16.82-39.76a4.75,4.75,0,0,1,3.13-2.84c9.13-1.55,18.3-2.88,27.48-4.13,2.73-.37,5.05-.69,5-4.29-.09-10.5,0-21-.2-31.5,0-1.26-1.74-3.36-2.92-3.56-9.29-1.57-18.63-2.93-28-4-2.75-.31-4.24-.87-4.91-3.84a115,115,0,0,0-15.77-37.82c-1.62-2.48-1.56-4,.17-6.26,5.75-7.42,11.4-14.92,16.88-22.55.8-1.1,1.22-3.73.55-4.43-8.16-8.55-16.56-16.86-25-25.32l-28.58,21.28A118.43,118.43,0,0,0,629,280.74c-4.22-1-5.81-2.94-6.3-7.1-1.16-9.75-2.78-19.44-4.22-29.21Z"/><path class="cls-3" d="M736.91,455c7.2,2.57,14.21,5,21.12,7.66.91.35,1.65,2,1.87,3.13.72,3.81,1.29,7.66,1.66,11.53.27,2.78,1.5,4.09,4.31,3.9.9-.06,1.8,0,2.7,0,11.68,0,12.13.07,13.27-11.45.52-5.25,2.56-7.33,7.23-8.84,6.31-2,12.34-5,19.09-7.75,3.33,2.49,7.42,5.46,11.41,8.57,1.78,1.39,3.22,2.06,4.79-.26a23,23,0,0,1,2.8-2.88c7.82-7.88,8-8,.72-16.52-3.16-3.7-4.11-6.5-1.33-11.12,3-4.9,4.3-10.75,6.71-16a7.26,7.26,0,0,1,4.12-3.64c3.72-1,7.7-1.15,11.46-2.07,1.31-.32,3.16-1.84,3.28-3a65.43,65.43,0,0,0,0-12.12,4.59,4.59,0,0,0-2.91-3.08,61.32,61.32,0,0,0-10.21-1.4c-4.15-.28-5.59-2.87-6.85-6.4-2-5.72-4.81-11.19-7-16.87a5.74,5.74,0,0,1,.17-4.52c2.77-4.23,5.94-8.21,9.55-13.07-3.74-3.47-7.35-7-11.17-10.23a3.51,3.51,0,0,0-3.29,0,106.11,106.11,0,0,0-9.79,7.06c-2.16,1.77-3.72,1.79-6.34.5-5.84-2.85-12.11-4.82-18-7.5a7.44,7.44,0,0,1-3.85-4.13,61.64,61.64,0,0,1-1.73-11.51c-.19-2.48-1.25-3.52-3.59-3.55-.3,0-.6-.06-.9,0-4.32.18-9.89-1.18-12.61,1s-2.49,7.83-2.92,12-2.28,5.89-6.57,6.79c-4.86,1-9.48,3.48-14,5.73-2.2,1.11-3.69,1-4.94-.89-1.61-2.44.38-3.66,2.1-4.45,4.59-2.11,9.4-3.76,13.9-6a8,8,0,0,0,3.8-4.49,63.26,63.26,0,0,0,1.44-11.11c.22-3.08,1.39-4.59,4.73-4.51,6.9.17,13.81.12,20.71,0,2.75,0,4.33.8,4,3.84a21.26,21.26,0,0,0,.11,2.24c.12,8.76,3.26,13.95,12.58,17.36,7.62,2.79,11.87,1.74,17.51-2.89,8-6.57,5.9-5.69,13,1,4.52,4.31,8.94,8.71,13.71,13.37-3.29,4.36-6.65,8.29-9.35,12.63a8.82,8.82,0,0,0-.73,6.43c1.24,4.26,3.34,8.26,4.87,12.45.84,2.29,1.74,3.89,4.57,4.07,4,.26,8,1,12,1.54,2.77.4,4.12,1.8,4,4.84-.19,6.6-.15,13.2-.08,19.81,0,2.81-.58,4.73-4,4.39-.88-.08-1.79.33-2.68.29-9.61-.4-14,4.59-17.25,13.44-2.48,6.67-2.16,11,2.51,15.74,2.16,2.21,3.72,5,5.46,7.39l-19.52,19.74c-4.19-3.1-8.36-6-12.24-9.15-2.19-1.8-4-2-6.48-.74a89.52,89.52,0,0,1-12.36,5.05,5.7,5.7,0,0,0-4.48,5.39c-.42,3.87-1,7.73-1.3,11.61-.17,2.63-1.31,3.82-3.88,3.82-7.06,0-14.11,0-21.16,0-3.36,0-3.78-2.46-4.16-4.82a60.38,60.38,0,0,1-1.1-9.81c0-3.94-2.06-5.43-5.4-6.55a101.45,101.45,0,0,1-11.93-4.92C733.53,458.81,733.57,458.36,736.91,455Z"/><path class="cls-4" d="M357.31,451.43c3.05-4.1,5.95-8.07,8.93-12,1.6-2.08,2-4,.78-6.55-2-4.27-3.3-9-5.57-13.09a9.94,9.94,0,0,0-5.67-4.06c-3.42-1-7.15-.75-10.64-1.54-1.27-.28-3.11-1.94-3.16-3-.36-7.34-.39-14.7-.29-22.05a3.66,3.66,0,0,1,2.2-2.62c4.5-1,9.14-1.44,13.6-2.57a7,7,0,0,0,3.94-3.43,86.07,86.07,0,0,0,5.12-12.8c.6-2,.59-4.85-.43-6.52-2.63-4.28-6-8.12-9.68-13,6-5.75,12-11.59,18.15-17.18.78-.71,3.11-.64,4.11,0,3.51,2.25,6.77,4.89,10.07,7.44,2,1.55,3.77,2,6.4.69,4.33-2.24,9.15-3.56,13.53-5.72a7,7,0,0,0,3.14-4.32,66,66,0,0,0,1.42-11.57c.11-2.86,1.06-4,4-4,6.9.11,13.81.14,20.71,0,3.4-.09,4.46,1.62,4.73,4.58.35,3.72.47,7.53,1.4,11.12a8.08,8.08,0,0,0,3.9,4.38c4.62,2.36,9.55,4.11,14.18,6.44,1,.5,1.27,2.44,1.87,3.72-1.52.42-3.27,1.53-4.52,1.12-5.89-1.95-11.7-4.2-17.42-6.63a5.59,5.59,0,0,1-2.82-3.43,77.83,77.83,0,0,1-1.67-11.07c-.25-3.08-1.46-4.49-4.68-4.69-13.9-.84-14.63-.43-15.91,13.33-.38,4-2.08,5.43-5.83,6.55a97.05,97.05,0,0,0-16.39,7c-2.42,1.24-4,1.27-6-.35A102.49,102.49,0,0,0,379,338.5a4.35,4.35,0,0,0-4,.25,80.4,80.4,0,0,0-8.94,8.76c-.69.8-.57,3.1.09,4.11,2.34,3.62,5.19,6.91,7.59,10.49a4.67,4.67,0,0,1,.43,3.77q-4,9.89-8.59,19.58a6,6,0,0,1-3.37,3.1,98.94,98.94,0,0,1-11,1.76c-3.11.4-5,1.65-4.63,5.2a37.52,37.52,0,0,1,0,4.5c0,9.57,0,9.57,9.5,10.83l.9.09c8.15.77,7.78.88,10.27,8.69,1.84,5.77,4.77,11.19,7.45,17.28-2.58,3.41-5.43,7.41-8.53,11.19-1.81,2.21-1.8,3.84.35,5.72,1.92,1.67,3.62,3.58,5.43,5.38,5,5.06,5.41,5.45,10.4.75,5.79-5.43,10.95-7.78,18.23-2.25,3.38,2.57,8.32,3,12.42,4.76a6.17,6.17,0,0,1,3.38,3.35,72.27,72.27,0,0,1,1.88,11.9c.23,2.71,1.37,3.78,3.93,3.65a3.38,3.38,0,0,1,.45,0c14.92.66,15,.67,16.58-14.14.32-2.93,1.12-4.24,4.22-5.15,5.38-1.57,10.5-4.08,15.65-6.38,1.83-.82,3.66-1.56,4.31.81a4.42,4.42,0,0,1-1.74,3.88c-4.66,2.29-9.64,4-14.29,6.27a7.42,7.42,0,0,0-3.51,4.27c-.83,3.31-.89,6.81-1.26,10.23-.41,3.75-1.78,5.92-6.27,5.57-6-.45-12-.17-18-.16-3.28,0-4.88-1.29-4.91-4.84a46.6,46.6,0,0,0-1.26-10.67,7.53,7.53,0,0,0-3.59-4.38,93.8,93.8,0,0,0-13.59-5.55,8.12,8.12,0,0,0-6,.61c-4.29,2.67-8.21,5.93-12.45,9.08Z"/><path class="cls-5" d="M448.93,254.47c-4.71-4.59-9-9.06-13.62-13.21-3.18-2.86-3.29-5,.75-7l15.85,16.45Z"/><path class="cls-6" d="M458.54,265.74l5.56-4.44a76,76,0,0,1,5,7c.18.29-2.19,2.76-2.53,2.59C464,269.49,461.55,267.72,458.54,265.74Z"/><path class="cls-7" d="M417.83,181a35.45,35.45,0,0,1-7.28,22.18c-1.62,2.21-1.48,3.5.39,5.29,4.53,4.36,8.85,8.93,13.37,13.3,1.6,1.55,2.5,2.78.6,4.8s-3.22,1-4.75-.55c-4.28-4.38-8.83-8.49-12.92-13-2.27-2.52-3.93-2.08-6.33-.41a38.63,38.63,0,0,1-52.05-6.91c-19.23-23.32-7.36-57.82,22.32-63.66,21.89-4.32,39.56,8.17,45.65,28.73C417.79,174,417.53,177.6,417.83,181Zm-39.06,32.59a33.24,33.24,0,0,0,0-66.47c-17.83-.35-33.15,15.2-33.24,33.06A33.4,33.4,0,0,0,378.77,213.62Z"/><path class="cls-8" d="M378.79,163c9.42-.74,17.61,7.53,17.54,17.42a17.59,17.59,0,0,1-17.61,17.68c-9.45,0-18.24-8.44-17.81-17.7C361.33,171.48,367.91,162.45,378.79,163Zm11.57,17.35c0-6.26-5.48-11.79-11.6-11.76s-11.69,5.72-11.7,11.82A11.59,11.59,0,0,0,378.78,192,11.29,11.29,0,0,0,390.36,180.39Z"/><path class="cls-9" d="M626,117.84A35.44,35.44,0,0,1,605,128c-2.72.37-3.54,1.37-3.54,4,0,6.28-.25,12.57-.25,18.85,0,2.23-.25,3.73-3,3.77-2.93,0-3-1.6-2.92-3.79.17-6.12,0-12.25.37-18.34.23-3.39-1.23-4.27-4.1-4.83a38.65,38.65,0,0,1-31.25-42.2c3.37-30,36.41-45.52,61.26-28.26C639.9,69.93,643.22,91.31,632.69,110,631,112.92,628.26,115.23,626,117.84Zm-50.58-5.39A33.23,33.23,0,0,0,623.16,66.2c-12.15-13.05-34-13.24-46.87-.88A33.4,33.4,0,0,0,575.43,112.45Z"/><path class="cls-10" d="M594.89,191.27c0-6.58.23-12.79,0-19-.15-4.28,1.3-5.84,5.58-4.36-.26,7.5-.52,15-.79,22.83Z"/><path class="cls-11" d="M593.49,206l7,.91a80.4,80.4,0,0,1-1.49,8.48c-.09.32-3.51.34-3.62,0A90.19,90.19,0,0,1,593.49,206Z"/><path class="cls-12" d="M611.78,77.28c7.08,6.25,6.84,17.89-.31,24.72a17.6,17.6,0,0,1-25-.36c-6.56-6.79-6.62-19,.33-25.1C593.57,70.61,604.63,69.06,611.78,77.28Zm-4.42,20.38c4.48-4.37,4.66-12.14.38-16.52s-12.25-4.41-16.63-.18A11.58,11.58,0,0,0,591,97.38,11.29,11.29,0,0,0,607.36,97.66Z"/><path class="cls-13" d="M571.62,682.64a35.46,35.46,0,0,1,20.82-10.57c2.7-.42,3.51-1.44,3.46-4-.13-6.28,0-12.57-.08-18.86,0-2.23.19-3.73,3-3.82,2.92-.09,3,1.55,3,3.74-.07,6.12.25,12.25,0,18.35-.17,3.39,1.31,4.25,4.19,4.76a38.63,38.63,0,0,1,32,41.64C635,744,602.27,760,577.13,743.19c-18.56-12.4-22.25-33.73-12-52.58C566.69,687.64,569.42,685.28,571.62,682.64Zm50.67,4.5a33.23,33.23,0,0,0-46.92,47.08c12.38,12.83,34.21,12.64,46.88,0A33.39,33.39,0,0,0,622.29,687.14Z"/><path class="cls-14" d="M601.45,608.67c.09,6.58,0,12.79.32,19,.23,4.27-1.19,5.86-5.49,4.45.12-7.5.25-15,.38-22.83Z"/><path class="cls-15" d="M602.6,593.91l-7.07-.78a78.45,78.45,0,0,1,1.34-8.51c.08-.33,3.51-.41,3.62,0A91.64,91.64,0,0,1,602.6,593.91Z"/><path class="cls-16" d="M586.56,722.94c-7.18-6.12-7.15-17.77-.12-24.72a17.59,17.59,0,0,1,25-.08c6.68,6.68,7,18.85.11,25.1C604.89,729.29,593.85,731,586.56,722.94Zm4.06-20.45c-4.4,4.44-4.44,12.22-.09,16.52s12.33,4.2,16.63-.11a11.58,11.58,0,0,0-.17-16.42A11.29,11.29,0,0,0,590.62,702.49Z"/><path class="cls-17" d="M816,219.51a35.39,35.39,0,0,1-22.18-7.28c-2.2-1.62-3.5-1.48-5.29.39-4.36,4.53-8.92,8.85-13.3,13.37-1.55,1.6-2.78,2.5-4.8.6s-1-3.22.55-4.76c4.38-4.27,8.49-8.82,13-12.91,2.52-2.27,2.08-3.93.41-6.33a38.63,38.63,0,0,1,6.92-52.05c23.32-19.23,57.82-7.35,63.66,22.32,4.31,21.9-8.18,39.57-28.74,45.65C823,219.47,819.4,219.21,816,219.51Zm-32.58-39.06a33.23,33.23,0,0,0,66.46,0c.36-17.83-15.19-33.14-33.05-33.24A33.4,33.4,0,0,0,783.39,180.45Z"/><path class="cls-18" d="M742.53,250.6c4.59-4.71,9.06-9,13.21-13.62,2.86-3.17,5-3.29,7,.75l-16.45,15.85C745.45,252.9,744.08,251.83,742.53,250.6Z"/><path class="cls-19" d="M731.26,260.21l4.44,5.56a81,81,0,0,1-7,5.06c-.29.17-2.77-2.2-2.59-2.54A92.59,92.59,0,0,1,731.26,260.21Z"/><path class="cls-20" d="M834,180.48c.74,9.41-7.53,17.61-17.42,17.54a17.6,17.6,0,0,1-17.67-17.62c0-9.45,8.44-18.23,17.7-17.8C825.53,163,834.55,169.6,834,180.48ZM816.61,192c6.26,0,11.8-5.48,11.77-11.6s-5.72-11.69-11.82-11.7a11.58,11.58,0,0,0-11.5,11.72A11.28,11.28,0,0,0,816.61,192Z"/><path class="cls-21" d="M777.5,619a35.39,35.39,0,0,1,7.27-22.19c1.62-2.2,1.48-3.49-.38-5.29-4.53-4.36-8.86-8.92-13.37-13.3-1.61-1.55-2.51-2.77-.61-4.79s3.23-1,4.76.54c4.27,4.38,8.82,8.5,12.91,13,2.28,2.52,3.93,2.08,6.33.41a38.66,38.66,0,0,1,52.06,6.91c19.23,23.32,7.35,57.82-22.32,63.67-21.9,4.31-39.57-8.18-45.66-28.74C777.54,626,777.8,622.44,777.5,619Zm39.06-32.59a33.23,33.23,0,0,0,0,66.46c17.83.35,33.14-15.2,33.24-33.06A33.4,33.4,0,0,0,816.56,586.43Z"/><path class="cls-22" d="M746.39,545.57c4.71,4.6,9,9.06,13.63,13.21,3.17,2.86,3.29,5-.75,7l-15.86-16.44Z"/><path class="cls-23" d="M736.78,534.31l-5.56,4.44a80.87,80.87,0,0,1-5.05-7c-.17-.29,2.19-2.77,2.53-2.59A91.11,91.11,0,0,1,736.78,534.31Z"/><path class="cls-24" d="M816.53,637c-9.41.74-17.61-7.53-17.54-17.42a17.59,17.59,0,0,1,17.62-17.67c9.44,0,18.23,8.43,17.8,17.69C834,628.57,827.41,637.59,816.53,637ZM805,619.65c0,6.26,5.49,11.8,11.6,11.77s11.7-5.73,11.7-11.82a11.57,11.57,0,0,0-11.71-11.5A11.29,11.29,0,0,0,805,619.65Z"/><path class="cls-25" d="M379.35,580.53a35.45,35.45,0,0,1,22.18,7.28c2.21,1.62,3.5,1.48,5.29-.38,4.36-4.53,8.93-8.86,13.3-13.37,1.55-1.6,2.78-2.5,4.8-.6s1,3.22-.55,4.75c-4.38,4.27-8.49,8.83-13,12.92-2.52,2.27-2.08,3.92-.41,6.32A38.65,38.65,0,0,1,404,649.51c-23.32,19.22-57.82,7.35-63.66-22.33-4.31-21.9,8.18-39.57,28.74-45.65C372.33,580.57,375.92,580.84,379.35,580.53Zm32.58,39.07a33.23,33.23,0,0,0-66.46,0c-.35,17.83,15.19,33.15,33,33.24A33.4,33.4,0,0,0,411.93,619.6Z"/><path class="cls-26" d="M452.8,549.44c-4.6,4.71-9.06,9-13.21,13.62-2.86,3.18-5,3.29-7-.75L449,546.46Z"/><path class="cls-27" d="M464.06,539.83l-4.44-5.56a79.46,79.46,0,0,1,7-5c.29-.18,2.76,2.19,2.59,2.53A93.75,93.75,0,0,1,464.06,539.83Z"/><path class="cls-28" d="M361.36,619.56c-.74-9.41,7.53-17.6,17.42-17.53a17.58,17.58,0,0,1,17.67,17.62c0,9.44-8.43,18.23-17.69,17.8C369.79,637,360.77,630.45,361.36,619.56ZM378.71,608c-6.26,0-11.8,5.48-11.77,11.6s5.73,11.69,11.82,11.7a11.58,11.58,0,0,0,11.51-11.71A11.3,11.3,0,0,0,378.71,608Z"/><path class="cls-29" d="M293.23,372.65a35.48,35.48,0,0,1,10.66,20.77c.42,2.71,1.44,3.51,4,3.45,6.28-.15,12.57,0,18.86-.15,2.22-.05,3.73.17,3.83,2.94.1,2.93-1.54,3-3.73,3-6.12,0-12.25.3-18.35,0-3.39-.16-4.24,1.33-4.74,4.21A38.66,38.66,0,0,1,262.27,439c-30.1-2.73-46.28-35.43-29.57-60.64C245,359.79,266.34,356,285.24,366.15,288.21,367.74,290.58,370.46,293.23,372.65Zm-4.3,50.69a33.23,33.23,0,0,0-47.26-46.73c-12.79,12.42-12.51,34.25.13,46.87A33.4,33.4,0,0,0,288.93,423.34Z"/><path class="cls-30" d="M253,387.75c6.1-7.21,17.74-7.22,24.72-.22a17.6,17.6,0,0,1,.18,25c-6.65,6.71-18.82,7-25.1.21C246.71,406.1,244.92,395.07,253,387.75Zm20.47,4c-4.46-4.38-12.24-4.4-16.52,0s-4.15,12.34.18,16.64a11.57,11.57,0,0,0,16.41-.25A11.29,11.29,0,0,0,273.46,391.73Z"/><path class="cls-31" d="M906.78,427.22a35.42,35.42,0,0,1-10.66-20.77c-.43-2.7-1.45-3.51-4-3.45-6.28.16-12.57,0-18.85.17-2.23.05-3.74-.18-3.84-2.95-.1-2.92,1.54-3,3.73-3,6.12,0,12.25-.31,18.35,0,3.39.15,4.24-1.33,4.74-4.22a38.65,38.65,0,0,1,41.5-32.17c30.1,2.72,46.3,35.41,29.6,60.63-12.32,18.61-33.63,22.4-52.53,12.28C911.81,432.12,909.43,429.41,906.78,427.22Zm4.28-50.69a33.23,33.23,0,0,0,47.28,46.7c12.78-12.43,12.49-34.25-.15-46.87A33.4,33.4,0,0,0,911.06,376.53Z"/><path class="cls-32" d="M947,412.09c-6.09,7.22-17.73,7.24-24.72.24a17.61,17.61,0,0,1-.19-25c6.65-6.71,18.82-7,25.1-.22C953.29,393.74,955.08,404.77,947,412.09Zm-20.47-4c4.47,4.38,12.24,4.39,16.53,0s4.14-12.34-.19-16.63a11.59,11.59,0,0,0-16.42.25A11.31,11.31,0,0,0,926.54,408.13Z"/><path class="cls-33" d="M559.07,494.1a16.27,16.27,0,0,1-12.7-6.06l-47.32-58.85a11.83,11.83,0,0,1-1-1.36,16.15,16.15,0,0,1-2.16-12.32l16.84-73.4a16.18,16.18,0,0,1,8.82-10.95L590,298.51a16.55,16.55,0,0,1,6.23-1.57,16.26,16.26,0,0,1,7.87,1.58l68.34,32.64a16.14,16.14,0,0,1,8.81,10.95l16.9,73.37A16.08,16.08,0,0,1,695,429.17L647.65,488a16.15,16.15,0,0,1-12.7,6.06Zm38-190.8h-.54a10.3,10.3,0,0,0-3.81,1l-68.36,32.64a9.8,9.8,0,0,0-5.35,6.64l-16.84,73.38a9.85,9.85,0,0,0,1.33,7.49,8,8,0,0,0,.53.72L551.34,484a9.91,9.91,0,0,0,7.73,3.67l75.88,0a10,10,0,0,0,7.72-3.67L690,425.17a9.69,9.69,0,0,0,1.89-8.25L675,343.55a9.76,9.76,0,0,0-5.34-6.63l-68.36-32.65A9.71,9.71,0,0,0,597,303.3Z"/><path id="path3059" class="cls-34" d="M597,324.81a4.32,4.32,0,0,0-4.08,4.53v.11c0,.34,0,.76,0,1.07a31.66,31.66,0,0,0,.56,3.89,37.44,37.44,0,0,1,.44,7.41,4.28,4.28,0,0,1-1.34,2.13l-.08,1.73a53.13,53.13,0,0,0-34.14,16.43c-.45-.31-1.23-.87-1.48-1.07a3.15,3.15,0,0,1-2.44-.22,38.73,38.73,0,0,1-5.51-5,35.51,35.51,0,0,0-2.69-2.85c-.25-.23-.64-.51-.89-.73a4.91,4.91,0,0,0-2.86-1.06,3.89,3.89,0,0,0-3.27,1.45,4.36,4.36,0,0,0,1,6l0,.06c.28.22.59.5.84.67a32.76,32.76,0,0,0,3.39,2,40.19,40.19,0,0,1,6.1,4.28,4.66,4.66,0,0,1,.81,2.35l1.31,1.18a52.87,52.87,0,0,0-8.33,36.9l-1.71.51c-.45.58-1.09,1.51-1.76,1.76a38.51,38.51,0,0,1-7.33,1.2,38.47,38.47,0,0,0-3.92.31c-.31.06-.76.17-1.09.25h0s-.06,0-.06,0a4.11,4.11,0,1,0,1.82,8h.06l.08,0c.34-.09.76-.17,1.06-.23a31.76,31.76,0,0,0,3.67-1.4,37.14,37.14,0,0,1,7.14-2.1,4.32,4.32,0,0,1,2.35.84l1.79-.3a53.29,53.29,0,0,0,23.58,29.46l-.75,1.79a4,4,0,0,1,.36,2.32,39.33,39.33,0,0,1-3.69,6.66,30.61,30.61,0,0,0-2.18,3.28c-.17.31-.37.78-.53,1.09a4.11,4.11,0,1,0,7.38,3.52h0c.17-.3.37-.72.51-1a29.85,29.85,0,0,0,1.17-3.75c1.09-2.71,1.68-5.57,3.16-7.36a3.52,3.52,0,0,1,1.77-.87l.92-1.68a52.93,52.93,0,0,0,30.75,2.21,50.08,50.08,0,0,0,7-2.12c.26.47.76,1.34.87,1.57a3.24,3.24,0,0,1,2.1,1.25,37.53,37.53,0,0,1,2.8,6.89c.42,1.28.61,2.43,1.17,3.75.14.3.37.72.51,1.06a4.1,4.1,0,1,0,7.38-3.5c-.16-.33-.36-.78-.53-1.09a35.71,35.71,0,0,0-2.18-3.27,41.72,41.72,0,0,1-3.64-6.49,3.23,3.23,0,0,1,.31-2.41,11.06,11.06,0,0,1-.67-1.65,53.2,53.2,0,0,0,23.59-29.69c.53.08,1.45.25,1.73.31a3.17,3.17,0,0,1,2.3-.84,37.27,37.27,0,0,1,7.13,2.1c1.26.47,2.27,1,3.67,1.42.31.09.72.14,1.06.23,0,0,.06,0,.08,0h.06a4.11,4.11,0,1,0,1.82-8c-.36-.08-.84-.22-1.18-.28a33.5,33.5,0,0,0-3.91-.31,37.47,37.47,0,0,1-7.33-1.2,4.37,4.37,0,0,1-1.77-1.76l-1.65-.48a53.26,53.26,0,0,0-8.53-36.82c.42-.39,1.23-1.09,1.45-1.32a3.12,3.12,0,0,1,.79-2.32,37.82,37.82,0,0,1,6.1-4.28,31,31,0,0,0,3.41-2l.9-.72a4.37,4.37,0,0,0,1-6.05,4.3,4.3,0,0,0-6.1-.36,9.65,9.65,0,0,0-.89.73,37.93,37.93,0,0,0-2.72,2.85,38.73,38.73,0,0,1-5.51,5,4.43,4.43,0,0,1-2.49.28l-1.57,1.12a53.67,53.67,0,0,0-34-16.43c0-.53-.08-1.53-.08-1.81a3.28,3.28,0,0,1-1.34-2.05,37.54,37.54,0,0,1,.47-7.41,31.39,31.39,0,0,0,.56-3.89v-1.18c0-2.6-1.87-4.64-4.14-4.64Zm-5.12,31.73L590.69,378l-.09.06A3.58,3.58,0,0,1,587,381.5a3.48,3.48,0,0,1-2.12-.7l0,0-17.63-12.45a42,42,0,0,1,20.32-11.06C589,357,590.44,356.74,591.89,356.54Zm10.27,0a42.61,42.61,0,0,1,24.51,11.81l-17.49,12.39,0,0a3.63,3.63,0,0,1-5-.68,3.48,3.48,0,0,1-.78-2.09h0Zm-41.33,19.84,16.06,14.38,0,.08a3.62,3.62,0,0,1,.45,5,3.69,3.69,0,0,1-1.87,1.23l0,.05-20.54,6A42.16,42.16,0,0,1,560.83,376.38Zm72.25,0A43,43,0,0,1,639.23,403l-20.7-6,0-.09a3.63,3.63,0,0,1-2.57-4.28,3.38,3.38,0,0,1,1.14-1.9v-.06l16-14.29Zm-39.37,15.47h6.57l4.09,5.12-1.46,6.38-5.9,2.85-5.93-2.88L589.62,397Zm21.13,17.49a2.92,2.92,0,0,1,.83.05l0-.05L637,413A42.17,42.17,0,0,1,620,434.41l-8.29-20,0,0a3.61,3.61,0,0,1,3.14-5Zm-35.79.08a3.65,3.65,0,0,1,3.47,2.8,3.74,3.74,0,0,1-.2,2.21l.06.08-8.17,19.79a42.48,42.48,0,0,1-17-21.3l21.13-3.58,0,.06a5.07,5.07,0,0,1,.7-.06Zm17.82,8.68a3.24,3.24,0,0,1,1.68.36,3.61,3.61,0,0,1,1.62,1.54h.09l10.41,18.8c-1.35.45-2.75.84-4.17,1.18a42.28,42.28,0,0,1-23.09-1.18l10.38-18.77h0A3.66,3.66,0,0,1,596.87,418.13Z"/></g></g></svg>